<mxfile host="65bd71144e">
    <diagram id="PuLQSEjG-77W2LZa6V9n" name="Page-1">
        <mxGraphModel dx="2575" dy="963" grid="1" gridSize="10" guides="1" tooltips="1" connect="1" arrows="1" fold="1" page="1" pageScale="1" pageWidth="827" pageHeight="1169" math="0" shadow="0">
            <root>
                <mxCell id="0"/>
                <mxCell id="1" parent="0"/>
                <mxCell id="179" value="" style="rounded=0;whiteSpace=wrap;html=1;fontSize=18;" parent="1" vertex="1">
                    <mxGeometry x="2490" y="3005" width="500" height="475" as="geometry"/>
                </mxCell>
                <mxCell id="54" value="" style="rounded=0;whiteSpace=wrap;html=1;fontSize=18;" parent="1" vertex="1">
                    <mxGeometry x="1130" y="1280" width="510" height="190" as="geometry"/>
                </mxCell>
                <mxCell id="57" style="edgeStyle=none;html=1;entryX=0.875;entryY=0.5;entryDx=0;entryDy=0;entryPerimeter=0;fontSize=18;exitX=0.416;exitY=0.981;exitDx=0;exitDy=0;exitPerimeter=0;" parent="1" source="53" target="55" edge="1">
                    <mxGeometry relative="1" as="geometry"/>
                </mxCell>
                <mxCell id="5" style="edgeStyle=none;html=1;" parent="1" source="2" target="4" edge="1">
                    <mxGeometry relative="1" as="geometry"/>
                </mxCell>
                <mxCell id="2" value="a=2" style="rounded=0;whiteSpace=wrap;html=1;" parent="1" vertex="1">
                    <mxGeometry x="140" y="150" width="120" height="60" as="geometry"/>
                </mxCell>
                <mxCell id="6" style="edgeStyle=none;html=1;" parent="1" source="3" target="4" edge="1">
                    <mxGeometry relative="1" as="geometry"/>
                </mxCell>
                <mxCell id="3" value="b=3" style="rounded=0;whiteSpace=wrap;html=1;" parent="1" vertex="1">
                    <mxGeometry x="130" y="340" width="120" height="60" as="geometry"/>
                </mxCell>
                <mxCell id="8" style="edgeStyle=none;html=1;entryX=0;entryY=0.5;entryDx=0;entryDy=0;" parent="1" source="4" target="7" edge="1">
                    <mxGeometry relative="1" as="geometry"/>
                </mxCell>
                <mxCell id="4" value="Sum" style="ellipse;whiteSpace=wrap;html=1;" parent="1" vertex="1">
                    <mxGeometry x="450" y="210" width="120" height="80" as="geometry"/>
                </mxCell>
                <mxCell id="7" value="Print" style="shape=process;whiteSpace=wrap;html=1;backgroundOutline=1;" parent="1" vertex="1">
                    <mxGeometry x="620" y="220" width="120" height="60" as="geometry"/>
                </mxCell>
                <mxCell id="9" value="&lt;font style=&quot;font-size: 18px;&quot;&gt;int a =2&lt;br&gt;int b=3&lt;br&gt;print(a+b)&lt;/font&gt;" style="text;html=1;strokeColor=none;fillColor=none;align=center;verticalAlign=middle;whiteSpace=wrap;rounded=0;" parent="1" vertex="1">
                    <mxGeometry x="440" y="60" width="206" height="110" as="geometry"/>
                </mxCell>
                <mxCell id="10" value="Print" style="shape=process;whiteSpace=wrap;html=1;backgroundOutline=1;" parent="1" vertex="1">
                    <mxGeometry x="1330" y="640" width="120" height="60" as="geometry"/>
                </mxCell>
                <mxCell id="11" value="Sum" style="ellipse;whiteSpace=wrap;html=1;" parent="1" vertex="1">
                    <mxGeometry x="1330" y="520" width="120" height="80" as="geometry"/>
                </mxCell>
                <mxCell id="12" value="b=3" style="rounded=0;whiteSpace=wrap;html=1;" parent="1" vertex="1">
                    <mxGeometry x="1330" y="290" width="120" height="60" as="geometry"/>
                </mxCell>
                <mxCell id="13" value="a=2" style="rounded=0;whiteSpace=wrap;html=1;" parent="1" vertex="1">
                    <mxGeometry x="1330" y="420" width="120" height="60" as="geometry"/>
                </mxCell>
                <mxCell id="16" value="Execution Flow" style="text;html=1;strokeColor=none;fillColor=none;align=center;verticalAlign=middle;whiteSpace=wrap;rounded=0;fontSize=18;" parent="1" vertex="1">
                    <mxGeometry x="760" y="70" width="280" height="30" as="geometry"/>
                </mxCell>
                <mxCell id="17" value="Data Flow" style="text;html=1;strokeColor=none;fillColor=none;align=center;verticalAlign=middle;whiteSpace=wrap;rounded=0;fontSize=18;" parent="1" vertex="1">
                    <mxGeometry x="827" y="780" width="180" height="30" as="geometry"/>
                </mxCell>
                <mxCell id="32" style="edgeStyle=none;html=1;entryX=0;entryY=0.25;entryDx=0;entryDy=0;fontSize=18;" parent="1" source="18" target="31" edge="1">
                    <mxGeometry relative="1" as="geometry"/>
                </mxCell>
                <mxCell id="18" value="Github Pull" style="rounded=0;whiteSpace=wrap;html=1;fontSize=18;" parent="1" vertex="1">
                    <mxGeometry x="180" y="880" width="120" height="60" as="geometry"/>
                </mxCell>
                <mxCell id="22" style="edgeStyle=none;html=1;entryX=0;entryY=0.5;entryDx=0;entryDy=0;fontSize=18;exitX=1;exitY=0.5;exitDx=0;exitDy=0;" parent="1" source="18" target="21" edge="1">
                    <mxGeometry relative="1" as="geometry"/>
                </mxCell>
                <mxCell id="19" value="Asana Node" style="rounded=0;whiteSpace=wrap;html=1;fontSize=18;" parent="1" vertex="1">
                    <mxGeometry x="760" y="1040" width="120" height="60" as="geometry"/>
                </mxCell>
                <mxCell id="21" value="Twitter" style="rounded=1;whiteSpace=wrap;html=1;fontSize=18;" parent="1" vertex="1">
                    <mxGeometry x="560" y="840" width="120" height="60" as="geometry"/>
                </mxCell>
                <mxCell id="25" value="Entire Execution happens in one Time" style="text;html=1;strokeColor=none;fillColor=none;align=center;verticalAlign=middle;whiteSpace=wrap;rounded=0;fontSize=18;" parent="1" vertex="1">
                    <mxGeometry x="810" y="130" width="300" height="30" as="geometry"/>
                </mxCell>
                <mxCell id="26" value="Node Wise Execution" style="text;html=1;strokeColor=none;fillColor=none;align=center;verticalAlign=middle;whiteSpace=wrap;rounded=0;fontSize=18;" parent="1" vertex="1">
                    <mxGeometry x="860" y="820" width="210" height="30" as="geometry"/>
                </mxCell>
                <mxCell id="27" value="Usually no backward dependecy" style="text;html=1;strokeColor=none;fillColor=none;align=center;verticalAlign=middle;whiteSpace=wrap;rounded=0;fontSize=18;" parent="1" vertex="1">
                    <mxGeometry x="840" y="855" width="330" height="30" as="geometry"/>
                </mxCell>
                <mxCell id="33" style="edgeStyle=none;html=1;fontSize=18;" parent="1" source="31" target="19" edge="1">
                    <mxGeometry relative="1" as="geometry"/>
                </mxCell>
                <mxCell id="31" value="Enter in Db" style="rounded=1;whiteSpace=wrap;html=1;fontSize=18;" parent="1" vertex="1">
                    <mxGeometry x="330" y="1010" width="120" height="60" as="geometry"/>
                </mxCell>
                <mxCell id="35" value="Shared Memory" style="endArrow=none;dashed=1;html=1;dashPattern=1 3;strokeWidth=2;fontSize=18;entryX=0;entryY=0.25;entryDx=0;entryDy=0;exitX=1;exitY=0.75;exitDx=0;exitDy=0;" parent="1" source="18" target="19" edge="1">
                    <mxGeometry width="50" height="50" relative="1" as="geometry">
                        <mxPoint x="320" y="970" as="sourcePoint"/>
                        <mxPoint x="370" y="920" as="targetPoint"/>
                    </mxGeometry>
                </mxCell>
                <mxCell id="36" value="Full Fledged" style="text;html=1;strokeColor=none;fillColor=none;align=center;verticalAlign=middle;whiteSpace=wrap;rounded=0;fontSize=18;" parent="1" vertex="1">
                    <mxGeometry x="827" y="1190" width="200" height="30" as="geometry"/>
                </mxCell>
                <mxCell id="38" value="Github Pull" style="rounded=0;whiteSpace=wrap;html=1;fontSize=18;" parent="1" vertex="1">
                    <mxGeometry x="250" y="1370" width="120" height="60" as="geometry"/>
                </mxCell>
                <mxCell id="39" value="" style="endArrow=classic;html=1;fontSize=18;entryX=0;entryY=0.25;entryDx=0;entryDy=0;" parent="1" target="41" edge="1">
                    <mxGeometry width="50" height="50" relative="1" as="geometry">
                        <mxPoint x="370" y="1380" as="sourcePoint"/>
                        <mxPoint x="500" y="1380" as="targetPoint"/>
                    </mxGeometry>
                </mxCell>
                <mxCell id="41" value="Asana" style="rounded=1;whiteSpace=wrap;html=1;fontSize=18;" parent="1" vertex="1">
                    <mxGeometry x="620" y="1360" width="120" height="60" as="geometry"/>
                </mxCell>
                <mxCell id="42" value="var a" style="rounded=0;whiteSpace=wrap;html=1;fontSize=18;" parent="1" vertex="1">
                    <mxGeometry x="294" y="1490" width="120" height="60" as="geometry"/>
                </mxCell>
                <mxCell id="43" value="var b" style="rounded=0;whiteSpace=wrap;html=1;fontSize=18;" parent="1" vertex="1">
                    <mxGeometry x="294" y="1570" width="120" height="60" as="geometry"/>
                </mxCell>
                <mxCell id="44" value="" style="endArrow=none;dashed=1;html=1;fontSize=18;exitX=1;exitY=0.5;exitDx=0;exitDy=0;entryX=0;entryY=0.75;entryDx=0;entryDy=0;" parent="1" source="42" target="41" edge="1">
                    <mxGeometry width="50" height="50" relative="1" as="geometry">
                        <mxPoint x="460" y="1510" as="sourcePoint"/>
                        <mxPoint x="510" y="1460" as="targetPoint"/>
                    </mxGeometry>
                </mxCell>
                <mxCell id="45" value="" style="endArrow=none;dashed=1;html=1;fontSize=18;exitX=1;exitY=0.5;exitDx=0;exitDy=0;entryX=0;entryY=1;entryDx=0;entryDy=0;" parent="1" source="43" target="41" edge="1">
                    <mxGeometry width="50" height="50" relative="1" as="geometry">
                        <mxPoint x="510" y="1540" as="sourcePoint"/>
                        <mxPoint x="560" y="1490" as="targetPoint"/>
                    </mxGeometry>
                </mxCell>
                <mxCell id="46" value="Github Pull" style="rounded=0;whiteSpace=wrap;html=1;fontSize=18;" parent="1" vertex="1">
                    <mxGeometry x="1210" y="940" width="120" height="60" as="geometry"/>
                </mxCell>
                <mxCell id="47" value="Enter in Db" style="rounded=1;whiteSpace=wrap;html=1;fontSize=18;" parent="1" vertex="1">
                    <mxGeometry x="1400" y="940" width="120" height="60" as="geometry"/>
                </mxCell>
                <mxCell id="48" value="Twitter" style="rounded=1;whiteSpace=wrap;html=1;fontSize=18;" parent="1" vertex="1">
                    <mxGeometry x="1540" y="940" width="120" height="60" as="geometry"/>
                </mxCell>
                <mxCell id="49" value="Asana Node" style="rounded=0;whiteSpace=wrap;html=1;fontSize=18;" parent="1" vertex="1">
                    <mxGeometry x="1710" y="940" width="120" height="60" as="geometry"/>
                </mxCell>
                <mxCell id="56" style="edgeStyle=none;html=1;fontSize=18;" parent="1" source="50" target="55" edge="1">
                    <mxGeometry relative="1" as="geometry"/>
                </mxCell>
                <mxCell id="50" value="Github Pull" style="rounded=0;whiteSpace=wrap;html=1;fontSize=18;" parent="1" vertex="1">
                    <mxGeometry x="930" y="1340" width="120" height="60" as="geometry"/>
                </mxCell>
                <mxCell id="51" value="var b" style="rounded=0;whiteSpace=wrap;html=1;fontSize=18;" parent="1" vertex="1">
                    <mxGeometry x="1310" y="1340" width="120" height="60" as="geometry"/>
                </mxCell>
                <mxCell id="52" value="var a" style="rounded=0;whiteSpace=wrap;html=1;fontSize=18;" parent="1" vertex="1">
                    <mxGeometry x="1150" y="1340" width="120" height="60" as="geometry"/>
                </mxCell>
                <mxCell id="53" value="Asana" style="rounded=1;whiteSpace=wrap;html=1;fontSize=18;" parent="1" vertex="1">
                    <mxGeometry x="1470" y="1340" width="120" height="60" as="geometry"/>
                </mxCell>
                <mxCell id="55" value="" style="ellipse;shape=cloud;whiteSpace=wrap;html=1;fontSize=18;" parent="1" vertex="1">
                    <mxGeometry x="1060" y="1540" width="120" height="80" as="geometry"/>
                </mxCell>
                <mxCell id="58" value="Agents" style="text;html=1;strokeColor=none;fillColor=none;align=center;verticalAlign=middle;whiteSpace=wrap;rounded=0;fontSize=18;" parent="1" vertex="1">
                    <mxGeometry x="860" y="1754" width="60" height="30" as="geometry"/>
                </mxCell>
                <mxCell id="70" value="" style="rounded=0;whiteSpace=wrap;html=1;fontSize=18;" parent="1" vertex="1">
                    <mxGeometry x="526" y="1925" width="714" height="265" as="geometry"/>
                </mxCell>
                <mxCell id="71" value="Agent Unit" style="text;html=1;strokeColor=none;fillColor=none;align=center;verticalAlign=middle;whiteSpace=wrap;rounded=0;fontSize=18;" parent="1" vertex="1">
                    <mxGeometry x="540" y="1890" width="210" height="30" as="geometry"/>
                </mxCell>
                <mxCell id="73" value="" style="group" parent="1" vertex="1" connectable="0">
                    <mxGeometry x="-250" y="1800" width="540" height="280" as="geometry"/>
                </mxCell>
                <mxCell id="69" value="" style="group" parent="73" vertex="1" connectable="0">
                    <mxGeometry width="519" height="280" as="geometry"/>
                </mxCell>
                <mxCell id="62" value="" style="rounded=0;whiteSpace=wrap;html=1;fontSize=18;" parent="69" vertex="1">
                    <mxGeometry x="9" y="40" width="510" height="240" as="geometry"/>
                </mxCell>
                <mxCell id="63" value="LLM output" style="rounded=0;whiteSpace=wrap;html=1;fontSize=18;" parent="69" vertex="1">
                    <mxGeometry x="359" y="125" width="120" height="60" as="geometry"/>
                </mxCell>
                <mxCell id="65" style="edgeStyle=none;html=1;entryX=0;entryY=0.25;entryDx=0;entryDy=0;fontSize=18;" parent="69" source="64" target="63" edge="1">
                    <mxGeometry relative="1" as="geometry"/>
                </mxCell>
                <mxCell id="64" value="Prompt" style="rounded=0;whiteSpace=wrap;html=1;fontSize=18;" parent="69" vertex="1">
                    <mxGeometry x="109" y="80" width="120" height="60" as="geometry"/>
                </mxCell>
                <mxCell id="67" style="edgeStyle=none;html=1;entryX=0;entryY=0.5;entryDx=0;entryDy=0;fontSize=18;" parent="69" source="66" target="63" edge="1">
                    <mxGeometry relative="1" as="geometry"/>
                </mxCell>
                <mxCell id="66" value="VectorDb" style="rounded=0;whiteSpace=wrap;html=1;fontSize=18;" parent="69" vertex="1">
                    <mxGeometry x="129" y="180" width="120" height="60" as="geometry"/>
                </mxCell>
                <mxCell id="68" value="LLM-EU: LLM Execution Unit" style="text;html=1;strokeColor=none;fillColor=none;align=center;verticalAlign=middle;whiteSpace=wrap;rounded=0;fontSize=18;" parent="69" vertex="1">
                    <mxGeometry width="480" height="30" as="geometry"/>
                </mxCell>
                <mxCell id="72" value="" style="shape=cylinder3;whiteSpace=wrap;html=1;boundedLbl=1;backgroundOutline=1;size=15;fontSize=18;" parent="73" vertex="1">
                    <mxGeometry x="480" width="60" height="80" as="geometry"/>
                </mxCell>
                <mxCell id="81" style="edgeStyle=none;html=1;entryX=0;entryY=0.5;entryDx=0;entryDy=0;fontSize=18;" parent="1" source="74" target="80" edge="1">
                    <mxGeometry relative="1" as="geometry"/>
                </mxCell>
                <mxCell id="74" value="LLM Sentiment" style="shape=cylinder3;whiteSpace=wrap;html=1;boundedLbl=1;backgroundOutline=1;size=15;fontSize=18;" parent="1" vertex="1">
                    <mxGeometry x="700" y="1985" width="100" height="85" as="geometry"/>
                </mxCell>
                <mxCell id="84" style="edgeStyle=none;html=1;entryX=0;entryY=0;entryDx=0;entryDy=52.5;entryPerimeter=0;fontSize=18;" parent="1" source="75" target="83" edge="1">
                    <mxGeometry relative="1" as="geometry"/>
                </mxCell>
                <mxCell id="75" value="If negative" style="rounded=0;whiteSpace=wrap;html=1;fontSize=18;" parent="1" vertex="1">
                    <mxGeometry x="907" y="1990" width="120" height="75" as="geometry"/>
                </mxCell>
                <mxCell id="77" style="edgeStyle=none;html=1;entryX=0;entryY=0.5;entryDx=0;entryDy=0;entryPerimeter=0;fontSize=18;" parent="1" source="76" target="74" edge="1">
                    <mxGeometry relative="1" as="geometry"/>
                </mxCell>
                <mxCell id="76" value="Input" style="rounded=0;whiteSpace=wrap;html=1;fontSize=18;" parent="1" vertex="1">
                    <mxGeometry x="560" y="1997.5" width="120" height="60" as="geometry"/>
                </mxCell>
                <mxCell id="82" style="edgeStyle=none;html=1;entryX=0;entryY=0.5;entryDx=0;entryDy=0;fontSize=18;" parent="1" source="80" target="75" edge="1">
                    <mxGeometry relative="1" as="geometry"/>
                </mxCell>
                <mxCell id="80" value="Add to CRM" style="rounded=0;whiteSpace=wrap;html=1;fontSize=18;" parent="1" vertex="1">
                    <mxGeometry x="787" y="2090" width="120" height="60" as="geometry"/>
                </mxCell>
                <mxCell id="83" value="Write Mail" style="shape=cylinder3;whiteSpace=wrap;html=1;boundedLbl=1;backgroundOutline=1;size=15;fontSize=18;" parent="1" vertex="1">
                    <mxGeometry x="1070" y="1985" width="110" height="68" as="geometry"/>
                </mxCell>
                <mxCell id="85" value="" style="rounded=0;whiteSpace=wrap;html=1;fontSize=18;" parent="1" vertex="1">
                    <mxGeometry x="1370" y="1925" width="480" height="290" as="geometry"/>
                </mxCell>
                <mxCell id="86" value="Agent unit: To generate Card" style="text;html=1;strokeColor=none;fillColor=none;align=center;verticalAlign=middle;whiteSpace=wrap;rounded=0;fontSize=18;" parent="1" vertex="1">
                    <mxGeometry x="1390" y="1880" width="380" height="30" as="geometry"/>
                </mxCell>
                <mxCell id="92" style="edgeStyle=none;html=1;entryX=0;entryY=0.5;entryDx=0;entryDy=0;entryPerimeter=0;fontSize=18;" parent="1" source="87" target="89" edge="1">
                    <mxGeometry relative="1" as="geometry"/>
                </mxCell>
                <mxCell id="87" value="Input" style="rounded=0;whiteSpace=wrap;html=1;fontSize=18;" parent="1" vertex="1">
                    <mxGeometry x="1420" y="2030" width="70" height="60" as="geometry"/>
                </mxCell>
                <mxCell id="89" value="Create Card image" style="shape=cylinder3;whiteSpace=wrap;html=1;boundedLbl=1;backgroundOutline=1;size=15;fontSize=18;" parent="1" vertex="1">
                    <mxGeometry x="1600" y="1985" width="130" height="140" as="geometry"/>
                </mxCell>
                <mxCell id="93" value="" style="rounded=0;whiteSpace=wrap;html=1;fontSize=18;" parent="1" vertex="1">
                    <mxGeometry x="2040" y="1910" width="450" height="280" as="geometry"/>
                </mxCell>
                <mxCell id="94" value="" style="shape=cube;whiteSpace=wrap;html=1;boundedLbl=1;backgroundOutline=1;darkOpacity=0.05;darkOpacity2=0.1;fontSize=18;" parent="1" vertex="1">
                    <mxGeometry x="1180" y="1890" width="120" height="80" as="geometry"/>
                </mxCell>
                <mxCell id="95" value="" style="shape=cube;whiteSpace=wrap;html=1;boundedLbl=1;backgroundOutline=1;darkOpacity=0.05;darkOpacity2=0.1;fontSize=18;" parent="1" vertex="1">
                    <mxGeometry x="1770" y="1890" width="120" height="80" as="geometry"/>
                </mxCell>
                <mxCell id="96" value="Orchestrator" style="text;html=1;strokeColor=none;fillColor=none;align=center;verticalAlign=middle;whiteSpace=wrap;rounded=0;fontSize=18;" parent="1" vertex="1">
                    <mxGeometry x="2040" y="1861" width="200" height="30" as="geometry"/>
                </mxCell>
                <mxCell id="97" value="" style="shape=cube;whiteSpace=wrap;html=1;boundedLbl=1;backgroundOutline=1;darkOpacity=0.05;darkOpacity2=0.1;fontSize=18;" parent="1" vertex="1">
                    <mxGeometry x="2100" y="2045" width="120" height="80" as="geometry"/>
                </mxCell>
                <mxCell id="98" value="" style="shape=cube;whiteSpace=wrap;html=1;boundedLbl=1;backgroundOutline=1;darkOpacity=0.05;darkOpacity2=0.1;fontSize=18;" parent="1" vertex="1">
                    <mxGeometry x="2310" y="2045" width="120" height="80" as="geometry"/>
                </mxCell>
                <mxCell id="107" value="" style="group" parent="1" vertex="1" connectable="0">
                    <mxGeometry x="-319" y="2200" width="449" height="290" as="geometry"/>
                </mxCell>
                <mxCell id="105" value="Get From Asana" style="shape=tape;whiteSpace=wrap;html=1;fontSize=18;" parent="107" vertex="1">
                    <mxGeometry width="449" height="290" as="geometry"/>
                </mxCell>
                <mxCell id="106" value="Tools" style="text;html=1;strokeColor=none;fillColor=none;align=center;verticalAlign=middle;whiteSpace=wrap;rounded=0;fontSize=18;" parent="107" vertex="1">
                    <mxGeometry x="59" y="11" width="60" height="30" as="geometry"/>
                </mxCell>
                <mxCell id="129" value="" style="group" parent="1" vertex="1" connectable="0">
                    <mxGeometry x="650" y="2420" width="875" height="350" as="geometry"/>
                </mxCell>
                <mxCell id="99" value="" style="rounded=1;whiteSpace=wrap;html=1;fontSize=18;" parent="129" vertex="1">
                    <mxGeometry y="50" width="875" height="260" as="geometry"/>
                </mxCell>
                <mxCell id="100" value="Agent Unit" style="text;html=1;strokeColor=none;fillColor=none;align=center;verticalAlign=middle;whiteSpace=wrap;rounded=0;fontSize=18;" parent="129" vertex="1">
                    <mxGeometry x="25" width="60" height="30" as="geometry"/>
                </mxCell>
                <mxCell id="102" value="" style="shape=cube;whiteSpace=wrap;html=1;boundedLbl=1;backgroundOutline=1;darkOpacity=0.05;darkOpacity2=0.1;fontSize=18;" parent="129" vertex="1">
                    <mxGeometry x="540" y="18" width="120" height="80" as="geometry"/>
                </mxCell>
                <mxCell id="104" value="Ask From LLM which tool to Use" style="shape=cylinder3;whiteSpace=wrap;html=1;boundedLbl=1;backgroundOutline=1;size=15;fontSize=18;" parent="129" vertex="1">
                    <mxGeometry x="250" y="70" width="150" height="175" as="geometry"/>
                </mxCell>
                <mxCell id="109" style="edgeStyle=none;html=1;entryX=0;entryY=0.5;entryDx=0;entryDy=0;entryPerimeter=0;fontSize=18;" parent="129" source="108" target="104" edge="1">
                    <mxGeometry relative="1" as="geometry"/>
                </mxCell>
                <mxCell id="108" value="Asana" style="shape=tape;whiteSpace=wrap;html=1;fontSize=18;" parent="129" vertex="1">
                    <mxGeometry x="35" y="160" width="120" height="100" as="geometry"/>
                </mxCell>
                <mxCell id="110" value="Get all User Info" style="text;html=1;strokeColor=none;fillColor=none;align=center;verticalAlign=middle;whiteSpace=wrap;rounded=0;fontSize=18;" parent="129" vertex="1">
                    <mxGeometry x="25" y="70" width="150" height="30" as="geometry"/>
                </mxCell>
                <mxCell id="112" style="edgeStyle=none;html=1;entryX=0;entryY=1;entryDx=0;entryDy=-15;entryPerimeter=0;fontSize=18;" parent="129" source="111" target="104" edge="1">
                    <mxGeometry relative="1" as="geometry"/>
                </mxCell>
                <mxCell id="111" value="LinkedIn" style="shape=tape;whiteSpace=wrap;html=1;fontSize=18;" parent="129" vertex="1">
                    <mxGeometry x="45" y="250" width="120" height="100" as="geometry"/>
                </mxCell>
                <mxCell id="125" value="Use the Tool" style="rounded=0;whiteSpace=wrap;html=1;fontSize=18;" parent="129" vertex="1">
                    <mxGeometry x="455" y="140" width="120" height="60" as="geometry"/>
                </mxCell>
                <mxCell id="126" style="edgeStyle=none;html=1;entryX=0;entryY=0.5;entryDx=0;entryDy=0;fontSize=18;" parent="129" source="104" target="125" edge="1">
                    <mxGeometry relative="1" as="geometry"/>
                </mxCell>
                <mxCell id="127" value="Ask the LLM if the task is complete" style="shape=cylinder3;whiteSpace=wrap;html=1;boundedLbl=1;backgroundOutline=1;size=15;fontSize=18;" parent="129" vertex="1">
                    <mxGeometry x="685" y="118" width="170" height="132" as="geometry"/>
                </mxCell>
                <mxCell id="128" style="edgeStyle=none;html=1;entryX=0;entryY=0.5;entryDx=0;entryDy=0;entryPerimeter=0;fontSize=18;" parent="129" source="125" target="127" edge="1">
                    <mxGeometry relative="1" as="geometry"/>
                </mxCell>
                <mxCell id="130" value="Concept: Give me Report for Mahindra" style="text;html=1;strokeColor=none;fillColor=none;align=center;verticalAlign=middle;whiteSpace=wrap;rounded=0;fontSize=18;" parent="1" vertex="1">
                    <mxGeometry x="385" y="3020" width="355" height="30" as="geometry"/>
                </mxCell>
                <mxCell id="133" style="edgeStyle=none;html=1;fontSize=18;" parent="1" source="131" target="132" edge="1">
                    <mxGeometry relative="1" as="geometry"/>
                </mxCell>
                <mxCell id="131" value="Search Economic Times API for Mahindra" style="rounded=0;whiteSpace=wrap;html=1;fontSize=18;" parent="1" vertex="1">
                    <mxGeometry x="-270" y="3200" width="220" height="80" as="geometry"/>
                </mxCell>
                <mxCell id="136" value="" style="edgeStyle=none;html=1;fontSize=18;" parent="1" source="132" target="135" edge="1">
                    <mxGeometry relative="1" as="geometry"/>
                </mxCell>
                <mxCell id="132" value="Get all the Data" style="rounded=0;whiteSpace=wrap;html=1;fontSize=18;" parent="1" vertex="1">
                    <mxGeometry x="50" y="3200" width="260" height="80" as="geometry"/>
                </mxCell>
                <mxCell id="149" style="edgeStyle=none;html=1;entryX=0;entryY=0.5;entryDx=0;entryDy=0;fontSize=18;" parent="1" source="135" target="148" edge="1">
                    <mxGeometry relative="1" as="geometry"/>
                </mxCell>
                <mxCell id="135" value="Create Pdf" style="whiteSpace=wrap;html=1;fontSize=18;rounded=0;" parent="1" vertex="1">
                    <mxGeometry x="380" y="3210" width="120" height="60" as="geometry"/>
                </mxCell>
                <mxCell id="137" value="" style="shape=cylinder3;whiteSpace=wrap;html=1;boundedLbl=1;backgroundOutline=1;size=15;fontSize=18;" parent="1" vertex="1">
                    <mxGeometry x="1260" y="3060" width="150" height="200" as="geometry"/>
                </mxCell>
                <mxCell id="140" value="" style="group" parent="1" vertex="1" connectable="0">
                    <mxGeometry x="1150" y="2923" width="150" height="110" as="geometry"/>
                </mxCell>
                <mxCell id="139" value="" style="ellipse;shape=cloud;whiteSpace=wrap;html=1;fontSize=18;" parent="140" vertex="1">
                    <mxGeometry width="150" height="110" as="geometry"/>
                </mxCell>
                <mxCell id="138" value="give me report" style="text;html=1;strokeColor=none;fillColor=none;align=center;verticalAlign=middle;whiteSpace=wrap;rounded=0;fontSize=18;" parent="140" vertex="1">
                    <mxGeometry x="60" y="40" width="60" height="30" as="geometry"/>
                </mxCell>
                <mxCell id="141" value="" style="endArrow=none;dashed=1;html=1;dashPattern=1 3;strokeWidth=2;fontSize=18;" parent="1" source="137" target="139" edge="1">
                    <mxGeometry width="50" height="50" relative="1" as="geometry">
                        <mxPoint x="1230" y="3060" as="sourcePoint"/>
                        <mxPoint x="1280" y="3010" as="targetPoint"/>
                    </mxGeometry>
                </mxCell>
                <mxCell id="145" style="edgeStyle=none;html=1;entryX=-0.004;entryY=0.442;entryDx=0;entryDy=0;entryPerimeter=0;fontSize=18;" parent="1" source="143" target="137" edge="1">
                    <mxGeometry relative="1" as="geometry"/>
                </mxCell>
                <mxCell id="143" value="Http Calling" style="rounded=0;whiteSpace=wrap;html=1;fontSize=18;" parent="1" vertex="1">
                    <mxGeometry x="1020" y="3240" width="120" height="60" as="geometry"/>
                </mxCell>
                <mxCell id="146" style="edgeStyle=none;html=1;fontSize=18;" parent="1" source="144" target="137" edge="1">
                    <mxGeometry relative="1" as="geometry"/>
                </mxCell>
                <mxCell id="144" value="PDF Creation" style="rounded=0;whiteSpace=wrap;html=1;fontSize=18;" parent="1" vertex="1">
                    <mxGeometry x="1023" y="3330" width="120" height="60" as="geometry"/>
                </mxCell>
                <mxCell id="147" value="" style="verticalLabelPosition=bottom;shadow=0;dashed=0;align=center;html=1;verticalAlign=top;shape=mxgraph.electrical.radio.loop_antenna;fontSize=18;" parent="1" vertex="1">
                    <mxGeometry x="1310" y="3150" width="64.8" height="69.78" as="geometry"/>
                </mxCell>
                <mxCell id="148" value="crm save" style="rounded=0;whiteSpace=wrap;html=1;fontSize=18;" parent="1" vertex="1">
                    <mxGeometry x="610" y="3210" width="120" height="60" as="geometry"/>
                </mxCell>
                <mxCell id="151" style="edgeStyle=none;html=1;entryX=0.145;entryY=1;entryDx=0;entryDy=-4.35;entryPerimeter=0;fontSize=18;" parent="1" source="150" target="137" edge="1">
                    <mxGeometry relative="1" as="geometry"/>
                </mxCell>
                <mxCell id="150" value="crm save" style="rounded=0;whiteSpace=wrap;html=1;fontSize=18;" parent="1" vertex="1">
                    <mxGeometry x="1027" y="3420" width="120" height="60" as="geometry"/>
                </mxCell>
                <mxCell id="164" style="edgeStyle=none;html=1;fontSize=18;" parent="1" source="152" target="163" edge="1">
                    <mxGeometry relative="1" as="geometry"/>
                </mxCell>
                <mxCell id="152" value="" style="shape=cylinder3;whiteSpace=wrap;html=1;boundedLbl=1;backgroundOutline=1;size=15;fontSize=18;" parent="1" vertex="1">
                    <mxGeometry x="2040" y="3027" width="150" height="200" as="geometry"/>
                </mxCell>
                <mxCell id="153" value="" style="group" parent="1" vertex="1" connectable="0">
                    <mxGeometry x="1930" y="2890" width="150" height="110" as="geometry"/>
                </mxCell>
                <mxCell id="154" value="" style="ellipse;shape=cloud;whiteSpace=wrap;html=1;fontSize=18;" parent="153" vertex="1">
                    <mxGeometry width="150" height="110" as="geometry"/>
                </mxCell>
                <mxCell id="155" value="give me report" style="text;html=1;strokeColor=none;fillColor=none;align=center;verticalAlign=middle;whiteSpace=wrap;rounded=0;fontSize=18;" parent="153" vertex="1">
                    <mxGeometry x="60" y="40" width="60" height="30" as="geometry"/>
                </mxCell>
                <mxCell id="156" value="" style="endArrow=none;dashed=1;html=1;dashPattern=1 3;strokeWidth=2;fontSize=18;" parent="1" source="152" target="154" edge="1">
                    <mxGeometry width="50" height="50" relative="1" as="geometry">
                        <mxPoint x="2010" y="3027" as="sourcePoint"/>
                        <mxPoint x="2060" y="2977" as="targetPoint"/>
                    </mxGeometry>
                </mxCell>
                <mxCell id="157" style="edgeStyle=none;html=1;entryX=-0.004;entryY=0.442;entryDx=0;entryDy=0;entryPerimeter=0;fontSize=18;" parent="1" source="158" target="152" edge="1">
                    <mxGeometry relative="1" as="geometry"/>
                </mxCell>
                <mxCell id="158" value="Http Calling" style="rounded=0;whiteSpace=wrap;html=1;fontSize=18;" parent="1" vertex="1">
                    <mxGeometry x="1800" y="3207" width="120" height="60" as="geometry"/>
                </mxCell>
                <mxCell id="159" style="edgeStyle=none;html=1;fontSize=18;" parent="1" source="160" target="152" edge="1">
                    <mxGeometry relative="1" as="geometry"/>
                </mxCell>
                <mxCell id="160" value="PDF Creation" style="rounded=0;whiteSpace=wrap;html=1;fontSize=18;" parent="1" vertex="1">
                    <mxGeometry x="1803" y="3297" width="120" height="60" as="geometry"/>
                </mxCell>
                <mxCell id="161" value="" style="verticalLabelPosition=bottom;shadow=0;dashed=0;align=center;html=1;verticalAlign=top;shape=mxgraph.electrical.radio.loop_antenna;fontSize=18;" parent="1" vertex="1">
                    <mxGeometry x="2090" y="3117" width="64.8" height="69.78" as="geometry"/>
                </mxCell>
                <mxCell id="163" value="crm save" style="rounded=0;whiteSpace=wrap;html=1;fontSize=18;" parent="1" vertex="1">
                    <mxGeometry x="2310" y="3097" width="120" height="60" as="geometry"/>
                </mxCell>
                <mxCell id="165" value="" style="rounded=0;whiteSpace=wrap;html=1;fontSize=18;" parent="1" vertex="1">
                    <mxGeometry x="2770" y="2840" width="570" height="90" as="geometry"/>
                </mxCell>
                <mxCell id="166" value="&lt;pre style=&quot;box-sizing: unset; line-height: 16.25px; padding: 0 var(--jp-code-padding); caret-color: rgb(33, 33, 33); color: rgb(33, 33, 33); font-size: 13px; font-style: normal; font-variant-caps: normal; font-weight: 400; letter-spacing: normal; orphans: auto; text-align: start; text-indent: 0px; text-transform: none; widows: auto; word-spacing: 0px; -webkit-text-stroke-width: 0px; background-color: rgb(245, 245, 245); text-decoration: none;&quot;&gt;&lt;span style=&quot;box-sizing: unset;&quot; class=&quot;n&quot;&gt;AgentExecutor&lt;/span&gt;&lt;/pre&gt;" style="shape=cylinder3;whiteSpace=wrap;html=1;boundedLbl=1;backgroundOutline=1;size=15;fontSize=18;" parent="1" vertex="1">
                    <mxGeometry x="2760" y="3150" width="150" height="200" as="geometry"/>
                </mxCell>
                <mxCell id="167" value="" style="group" parent="1" vertex="1" connectable="0">
                    <mxGeometry x="2650" y="3013" width="150" height="110" as="geometry"/>
                </mxCell>
                <mxCell id="168" value="" style="ellipse;shape=cloud;whiteSpace=wrap;html=1;fontSize=18;" parent="167" vertex="1">
                    <mxGeometry width="150" height="110" as="geometry"/>
                </mxCell>
                <mxCell id="169" value="give me report" style="text;html=1;strokeColor=none;fillColor=none;align=center;verticalAlign=middle;whiteSpace=wrap;rounded=0;fontSize=18;" parent="167" vertex="1">
                    <mxGeometry x="60" y="40" width="60" height="30" as="geometry"/>
                </mxCell>
                <mxCell id="170" value="" style="endArrow=none;dashed=1;html=1;dashPattern=1 3;strokeWidth=2;fontSize=18;" parent="1" source="166" target="168" edge="1">
                    <mxGeometry width="50" height="50" relative="1" as="geometry">
                        <mxPoint x="2730" y="3150" as="sourcePoint"/>
                        <mxPoint x="2780" y="3100" as="targetPoint"/>
                    </mxGeometry>
                </mxCell>
                <mxCell id="171" style="edgeStyle=none;html=1;entryX=-0.004;entryY=0.442;entryDx=0;entryDy=0;entryPerimeter=0;fontSize=18;" parent="1" source="172" target="166" edge="1">
                    <mxGeometry relative="1" as="geometry"/>
                </mxCell>
                <mxCell id="172" value="Http Calling" style="rounded=0;whiteSpace=wrap;html=1;fontSize=18;" parent="1" vertex="1">
                    <mxGeometry x="2520" y="3330" width="120" height="60" as="geometry"/>
                </mxCell>
                <mxCell id="173" style="edgeStyle=none;html=1;fontSize=18;" parent="1" source="174" target="166" edge="1">
                    <mxGeometry relative="1" as="geometry"/>
                </mxCell>
                <mxCell id="174" value="PDF Creation" style="rounded=0;whiteSpace=wrap;html=1;fontSize=18;" parent="1" vertex="1">
                    <mxGeometry x="2523" y="3420" width="120" height="60" as="geometry"/>
                </mxCell>
                <mxCell id="175" value="" style="verticalLabelPosition=bottom;shadow=0;dashed=0;align=center;html=1;verticalAlign=top;shape=mxgraph.electrical.radio.loop_antenna;fontSize=18;" parent="1" vertex="1">
                    <mxGeometry x="2810" y="3240" width="64.8" height="69.78" as="geometry"/>
                </mxCell>
                <mxCell id="176" value="" style="rounded=0;whiteSpace=wrap;html=1;fontSize=18;" parent="1" vertex="1">
                    <mxGeometry x="3070" y="3063" width="350" height="217" as="geometry"/>
                </mxCell>
                <mxCell id="177" value="crm save" style="rounded=0;whiteSpace=wrap;html=1;fontSize=18;" parent="1" vertex="1">
                    <mxGeometry x="3170" y="3140" width="120" height="60" as="geometry"/>
                </mxCell>
                <mxCell id="178" value="Get Me Data and Save it in CRM" style="text;html=1;strokeColor=none;fillColor=none;align=center;verticalAlign=middle;whiteSpace=wrap;rounded=0;fontSize=18;" parent="1" vertex="1">
                    <mxGeometry x="2790" y="2811" width="500" height="30" as="geometry"/>
                </mxCell>
                <mxCell id="180" value="" style="shape=xor;whiteSpace=wrap;html=1;fontSize=18;" parent="1" vertex="1">
                    <mxGeometry x="2950" y="2970" width="60" height="80" as="geometry"/>
                </mxCell>
                <mxCell id="181" value="" style="shape=xor;whiteSpace=wrap;html=1;fontSize=18;" parent="1" vertex="1">
                    <mxGeometry x="3380" y="3017" width="60" height="80" as="geometry"/>
                </mxCell>
                <mxCell id="182" value="" style="shape=xor;whiteSpace=wrap;html=1;fontSize=18;" parent="1" vertex="1">
                    <mxGeometry x="2900" y="2845" width="60" height="80" as="geometry"/>
                </mxCell>
                <mxCell id="183" value="" style="shape=xor;whiteSpace=wrap;html=1;fontSize=18;" parent="1" vertex="1">
                    <mxGeometry x="3180" y="2845" width="60" height="80" as="geometry"/>
                </mxCell>
                <mxCell id="184" value="- Orchestrator&lt;br&gt;- LLM-EU&lt;br&gt;- AgentExecutor&lt;br&gt;- Agent (Executor and Flow)&lt;br&gt;- Edge" style="text;html=1;strokeColor=none;fillColor=none;align=left;verticalAlign=middle;whiteSpace=wrap;rounded=0;fontSize=18;" parent="1" vertex="1">
                    <mxGeometry x="3590" y="2950" width="320" height="130" as="geometry"/>
                </mxCell>
                <mxCell id="192" value="Edge" style="edgeStyle=none;html=1;fontSize=18;" parent="1" source="191" edge="1">
                    <mxGeometry relative="1" as="geometry">
                        <mxPoint x="3640" y="3157" as="targetPoint"/>
                    </mxGeometry>
                </mxCell>
                <mxCell id="191" value="" style="shape=cylinder3;whiteSpace=wrap;html=1;boundedLbl=1;backgroundOutline=1;size=15;fontSize=18;" parent="1" vertex="1">
                    <mxGeometry x="3470" y="3297" width="60" height="80" as="geometry"/>
                </mxCell>
                <mxCell id="210" value="" style="group" vertex="1" connectable="0" parent="1">
                    <mxGeometry x="2780" y="2215" width="860" height="295" as="geometry"/>
                </mxCell>
                <mxCell id="203" value="" style="shape=cylinder3;whiteSpace=wrap;html=1;boundedLbl=1;backgroundOutline=1;size=15;fontSize=18;" vertex="1" parent="210">
                    <mxGeometry x="800" width="60" height="80" as="geometry"/>
                </mxCell>
                <mxCell id="196" value="" style="rounded=0;whiteSpace=wrap;html=1;fontSize=18;" vertex="1" parent="210">
                    <mxGeometry y="55" width="850" height="240" as="geometry"/>
                </mxCell>
                <mxCell id="197" value="LLM output" style="rounded=0;whiteSpace=wrap;html=1;fontSize=18;" vertex="1" parent="210">
                    <mxGeometry x="340" y="130" width="120" height="60" as="geometry"/>
                </mxCell>
                <mxCell id="198" style="edgeStyle=none;html=1;entryX=0;entryY=0.25;entryDx=0;entryDy=0;fontSize=18;" edge="1" parent="210" source="199" target="197">
                    <mxGeometry relative="1" as="geometry"/>
                </mxCell>
                <mxCell id="199" value="Prompt" style="rounded=0;whiteSpace=wrap;html=1;fontSize=18;" vertex="1" parent="210">
                    <mxGeometry x="90" y="85" width="120" height="60" as="geometry"/>
                </mxCell>
                <mxCell id="200" style="edgeStyle=none;html=1;entryX=0;entryY=0.5;entryDx=0;entryDy=0;fontSize=18;" edge="1" parent="210" source="201" target="197">
                    <mxGeometry relative="1" as="geometry"/>
                </mxCell>
                <mxCell id="201" value="VectorDb" style="rounded=0;whiteSpace=wrap;html=1;fontSize=18;" vertex="1" parent="210">
                    <mxGeometry x="110" y="185" width="120" height="60" as="geometry"/>
                </mxCell>
                <mxCell id="202" value="Agent Executor" style="text;html=1;strokeColor=none;fillColor=none;align=center;verticalAlign=middle;whiteSpace=wrap;rounded=0;fontSize=18;" vertex="1" parent="210">
                    <mxGeometry x="150" y="15" width="480" height="30" as="geometry"/>
                </mxCell>
                <mxCell id="205" value="" style="rounded=0;whiteSpace=wrap;html=1;" vertex="1" parent="210">
                    <mxGeometry x="528" y="130" width="120" height="60" as="geometry"/>
                </mxCell>
                <mxCell id="206" value="&lt;font style=&quot;font-size: 18px;&quot;&gt;Tool Calling&lt;/font&gt;" style="text;html=1;strokeColor=none;fillColor=none;align=center;verticalAlign=middle;whiteSpace=wrap;rounded=0;" vertex="1" parent="210">
                    <mxGeometry x="560" y="145" width="60" height="30" as="geometry"/>
                </mxCell>
                <mxCell id="207" style="edgeStyle=none;html=1;fontSize=18;" edge="1" parent="210" source="197" target="205">
                    <mxGeometry relative="1" as="geometry"/>
                </mxCell>
                <mxCell id="209" value="" style="curved=1;endArrow=classic;html=1;fontSize=18;exitX=1;exitY=0.5;exitDx=0;exitDy=0;entryX=0.25;entryY=1;entryDx=0;entryDy=0;" edge="1" parent="210" source="205" target="197">
                    <mxGeometry width="50" height="50" relative="1" as="geometry">
                        <mxPoint x="700" y="185" as="sourcePoint"/>
                        <mxPoint x="750" y="135" as="targetPoint"/>
                        <Array as="points">
                            <mxPoint x="750" y="185"/>
                            <mxPoint x="630" y="285"/>
                            <mxPoint x="470" y="235"/>
                        </Array>
                    </mxGeometry>
                </mxCell>
                <mxCell id="213" value="Json:&lt;br&gt;{nodes:[{id:12312,type:var, name:a, val:2}, {type:var, name:b, id:1223 val:3}, {name:sum, params: [12312, 1223]}, {}&lt;br&gt;edges:{a-b}]&amp;nbsp;&lt;br&gt;&amp;nbsp;" style="text;html=1;strokeColor=none;fillColor=none;align=center;verticalAlign=middle;whiteSpace=wrap;rounded=0;fontSize=8;" vertex="1" parent="1">
                    <mxGeometry x="-170" y="180" width="230" height="150" as="geometry"/>
                </mxCell>
                <mxCell id="214" value="Type=VarObj code&lt;br&gt;function main(){}&lt;br&gt;function get(){}" style="rounded=0;whiteSpace=wrap;html=1;fontSize=8;" vertex="1" parent="1">
                    <mxGeometry x="-154" y="370" width="120" height="60" as="geometry"/>
                </mxCell>
                <mxCell id="215" value="Type=sum code&lt;br&gt;function main(VarObj[]){}" style="rounded=0;whiteSpace=wrap;html=1;fontSize=8;" vertex="1" parent="1">
                    <mxGeometry x="-141" y="450" width="120" height="60" as="geometry"/>
                </mxCell>
                <mxCell id="216" value="" style="rounded=0;whiteSpace=wrap;html=1;fontSize=8;" vertex="1" parent="1">
                    <mxGeometry x="-361" y="370" width="120" height="60" as="geometry"/>
                </mxCell>
            </root>
        </mxGraphModel>
    </diagram>
</mxfile>